<svg width="147" height="39" viewBox="0 0 147 39" fill="none" xmlns="http://www.w3.org/2000/svg">
<path d="M10.2539 19.6396H4.77539L4.74609 16.6221H9.3457C10.1562 16.6221 10.8203 16.5195 11.3379 16.3145C11.8555 16.0996 12.2412 15.792 12.4951 15.3916C12.7588 14.9814 12.8906 14.4834 12.8906 13.8975C12.8906 13.2334 12.7637 12.6963 12.5098 12.2861C12.2656 11.876 11.8799 11.5781 11.3525 11.3926C10.835 11.207 10.166 11.1143 9.3457 11.1143H6.29883V29H1.9043V7.67188H9.3457C10.5859 7.67188 11.6943 7.78906 12.6709 8.02344C13.6572 8.25781 14.4922 8.61426 15.1758 9.09277C15.8594 9.57129 16.3818 10.1768 16.7432 10.9092C17.1045 11.6318 17.2852 12.4912 17.2852 13.4873C17.2852 14.3662 17.085 15.1768 16.6846 15.9189C16.2939 16.6611 15.6738 17.2666 14.8242 17.7354C13.9844 18.2041 12.8857 18.4629 11.5283 18.5117L10.2539 19.6396ZM10.0635 29H3.57422L5.28809 25.5723H10.0635C10.835 25.5723 11.4648 25.4502 11.9531 25.2061C12.4414 24.9521 12.8027 24.6104 13.0371 24.1807C13.2715 23.751 13.3887 23.2578 13.3887 22.7012C13.3887 22.0762 13.2812 21.5342 13.0664 21.0752C12.8613 20.6162 12.5293 20.2646 12.0703 20.0205C11.6113 19.7666 11.0059 19.6396 10.2539 19.6396H6.02051L6.0498 16.6221H11.3232L12.334 17.8086C13.6328 17.7891 14.6777 18.0186 15.4688 18.4971C16.2695 18.9658 16.8506 19.5762 17.2119 20.3281C17.583 21.0801 17.7686 21.8857 17.7686 22.7451C17.7686 24.1123 17.4707 25.2646 16.875 26.2021C16.2793 27.1299 15.4053 27.8281 14.2529 28.2969C13.1104 28.7656 11.7139 29 10.0635 29ZM26.7158 17.8525H31.3154C32.7607 17.8525 33.9912 18.0918 35.0068 18.5703C36.0322 19.0391 36.8135 19.6934 37.3506 20.5332C37.8975 21.373 38.1709 22.3447 38.1709 23.4482C38.1709 24.249 38.0146 24.9912 37.7021 25.6748C37.3994 26.3486 36.9551 26.9346 36.3691 27.4326C35.7832 27.9307 35.0654 28.3164 34.2158 28.5898C33.3662 28.8633 32.3994 29 31.3154 29H24.0791V13.1504H28.3125V25.7188H31.3154C31.9502 25.7188 32.458 25.6162 32.8389 25.4111C33.2295 25.1963 33.5127 24.918 33.6885 24.5762C33.874 24.2344 33.9668 23.8633 33.9668 23.4629C33.9668 23.043 33.874 22.6621 33.6885 22.3203C33.5127 21.9688 33.2295 21.6855 32.8389 21.4707C32.458 21.2559 31.9502 21.1484 31.3154 21.1484H26.7158V17.8525ZM44.9385 13.1504V29H40.7197V13.1504H44.9385ZM55.043 13.1504L57.665 17.9697L60.3604 13.1504H64.8574L60.375 20.8994L65.0625 29H60.5508L57.6943 23.9023L54.8379 29H50.3262L55.0137 20.8994L50.5312 13.1504H55.043ZM68.7363 21.2363V20.9287C68.7363 19.7666 68.9023 18.6973 69.2344 17.7207C69.5664 16.7344 70.0498 15.8799 70.6846 15.1572C71.3193 14.4346 72.1006 13.873 73.0283 13.4727C73.9561 13.0625 75.0205 12.8574 76.2217 12.8574C77.4229 12.8574 78.4922 13.0625 79.4297 13.4727C80.3672 13.873 81.1533 14.4346 81.7881 15.1572C82.4326 15.8799 82.9209 16.7344 83.2529 17.7207C83.585 18.6973 83.751 19.7666 83.751 20.9287V21.2363C83.751 22.3887 83.585 23.458 83.2529 24.4443C82.9209 25.4209 82.4326 26.2754 81.7881 27.0078C81.1533 27.7305 80.3721 28.292 79.4443 28.6924C78.5166 29.0928 77.4521 29.293 76.251 29.293C75.0498 29.293 73.9805 29.0928 73.043 28.6924C72.1152 28.292 71.3291 27.7305 70.6846 27.0078C70.0498 26.2754 69.5664 25.4209 69.2344 24.4443C68.9023 23.458 68.7363 22.3887 68.7363 21.2363ZM72.9551 20.9287V21.2363C72.9551 21.9004 73.0137 22.5205 73.1309 23.0967C73.248 23.6729 73.4336 24.1807 73.6875 24.6201C73.9512 25.0498 74.293 25.3867 74.7129 25.6309C75.1328 25.875 75.6455 25.9971 76.251 25.9971C76.8369 25.9971 77.3398 25.875 77.7598 25.6309C78.1797 25.3867 78.5166 25.0498 78.7705 24.6201C79.0244 24.1807 79.21 23.6729 79.3271 23.0967C79.4541 22.5205 79.5176 21.9004 79.5176 21.2363V20.9287C79.5176 20.2842 79.4541 19.6787 79.3271 19.1123C79.21 18.5361 79.0195 18.0283 78.7559 17.5889C78.502 17.1396 78.165 16.7881 77.7451 16.5342C77.3252 16.2803 76.8174 16.1533 76.2217 16.1533C75.626 16.1533 75.1182 16.2803 74.6982 16.5342C74.2881 16.7881 73.9512 17.1396 73.6875 17.5889C73.4336 18.0283 73.248 18.5361 73.1309 19.1123C73.0137 19.6787 72.9551 20.2842 72.9551 20.9287ZM91.1455 13.1504H95.3643L95.2324 18.4531C95.1934 20.1523 94.998 21.6123 94.6465 22.833C94.2949 24.0537 93.8262 25.0791 93.2402 25.9092C92.6543 26.7393 91.9854 27.4033 91.2334 27.9014C90.4912 28.3896 89.71 28.7559 88.8896 29H88.0986L88.0547 25.748L88.4941 25.7041C88.9922 25.1865 89.4023 24.6836 89.7246 24.1953C90.0469 23.6973 90.2959 23.1748 90.4717 22.6279C90.6475 22.0811 90.7744 21.4707 90.8525 20.7969C90.9404 20.123 90.9941 19.3418 91.0137 18.4531L91.1455 13.1504ZM92.2881 13.1504H102.791V29H98.5869V16.5342H92.2881V13.1504ZM87.1318 25.7041H105.062V33.7607H100.843V29H91.4531V33.7607H87.1318V25.7041Z" fill="#6549B0"/>
<path d="M110.646 21.8022H126.224L122.887 25.1379L126.141 28.392L135.037 19.5L126.144 10.6067L122.889 13.862L126.226 17.199H110.645L110.646 21.8022Z" fill="#6549B0"/>
<path d="M118.774 29.3195V37.7812H144.353V1.21875H118.771V9.67931L123.375 9.67931V5.82197H139.751V33.178H123.376V29.3195H118.774Z" fill="#6549B0"/>
</svg>
