<svg width="119" height="39" viewBox="0 0 119 39" fill="none" xmlns="http://www.w3.org/2000/svg">
<path d="M10.2539 19.6396H4.77539L4.74609 16.6221H9.3457C10.1562 16.6221 10.8203 16.5195 11.3379 16.3145C11.8555 16.0996 12.2412 15.792 12.4951 15.3916C12.7588 14.9814 12.8906 14.4834 12.8906 13.8975C12.8906 13.2334 12.7637 12.6963 12.5098 12.2861C12.2656 11.876 11.8799 11.5781 11.3525 11.3926C10.835 11.207 10.166 11.1143 9.3457 11.1143H6.29883V29H1.9043V7.67188H9.3457C10.5859 7.67188 11.6943 7.78906 12.6709 8.02344C13.6572 8.25781 14.4922 8.61426 15.1758 9.09277C15.8594 9.57129 16.3818 10.1768 16.7432 10.9092C17.1045 11.6318 17.2852 12.4912 17.2852 13.4873C17.2852 14.3662 17.085 15.1768 16.6846 15.9189C16.2939 16.6611 15.6738 17.2666 14.8242 17.7354C13.9844 18.2041 12.8857 18.4629 11.5283 18.5117L10.2539 19.6396ZM10.0635 29H3.57422L5.28809 25.5723H10.0635C10.835 25.5723 11.4648 25.4502 11.9531 25.2061C12.4414 24.9521 12.8027 24.6104 13.0371 24.1807C13.2715 23.751 13.3887 23.2578 13.3887 22.7012C13.3887 22.0762 13.2812 21.5342 13.0664 21.0752C12.8613 20.6162 12.5293 20.2646 12.0703 20.0205C11.6113 19.7666 11.0059 19.6396 10.2539 19.6396H6.02051L6.0498 16.6221H11.3232L12.334 17.8086C13.6328 17.7891 14.6777 18.0186 15.4688 18.4971C16.2695 18.9658 16.8506 19.5762 17.2119 20.3281C17.583 21.0801 17.7686 21.8857 17.7686 22.7451C17.7686 24.1123 17.4707 25.2646 16.875 26.2021C16.2793 27.1299 15.4053 27.8281 14.2529 28.2969C13.1104 28.7656 11.7139 29 10.0635 29ZM27.1992 13.1504L29.8213 17.9697L32.5166 13.1504H37.0137L32.5312 20.8994L37.2188 29H32.707L29.8506 23.9023L26.9941 29H22.4824L27.1699 20.8994L22.6875 13.1504H27.1992ZM40.8926 21.2363V20.9287C40.8926 19.7666 41.0586 18.6973 41.3906 17.7207C41.7227 16.7344 42.2061 15.8799 42.8408 15.1572C43.4756 14.4346 44.2568 13.873 45.1846 13.4727C46.1123 13.0625 47.1768 12.8574 48.3779 12.8574C49.5791 12.8574 50.6484 13.0625 51.5859 13.4727C52.5234 13.873 53.3096 14.4346 53.9443 15.1572C54.5889 15.8799 55.0771 16.7344 55.4092 17.7207C55.7412 18.6973 55.9072 19.7666 55.9072 20.9287V21.2363C55.9072 22.3887 55.7412 23.458 55.4092 24.4443C55.0771 25.4209 54.5889 26.2754 53.9443 27.0078C53.3096 27.7305 52.5283 28.292 51.6006 28.6924C50.6729 29.0928 49.6084 29.293 48.4072 29.293C47.2061 29.293 46.1367 29.0928 45.1992 28.6924C44.2715 28.292 43.4854 27.7305 42.8408 27.0078C42.2061 26.2754 41.7227 25.4209 41.3906 24.4443C41.0586 23.458 40.8926 22.3887 40.8926 21.2363ZM45.1113 20.9287V21.2363C45.1113 21.9004 45.1699 22.5205 45.2871 23.0967C45.4043 23.6729 45.5898 24.1807 45.8438 24.6201C46.1074 25.0498 46.4492 25.3867 46.8691 25.6309C47.2891 25.875 47.8018 25.9971 48.4072 25.9971C48.9932 25.9971 49.4961 25.875 49.916 25.6309C50.3359 25.3867 50.6729 25.0498 50.9268 24.6201C51.1807 24.1807 51.3662 23.6729 51.4834 23.0967C51.6104 22.5205 51.6738 21.9004 51.6738 21.2363V20.9287C51.6738 20.2842 51.6104 19.6787 51.4834 19.1123C51.3662 18.5361 51.1758 18.0283 50.9121 17.5889C50.6582 17.1396 50.3213 16.7881 49.9014 16.5342C49.4814 16.2803 48.9736 16.1533 48.3779 16.1533C47.7822 16.1533 47.2744 16.2803 46.8545 16.5342C46.4443 16.7881 46.1074 17.1396 45.8438 17.5889C45.5898 18.0283 45.4043 18.5361 45.2871 19.1123C45.1699 19.6787 45.1113 20.2842 45.1113 20.9287ZM63.3018 13.1504H67.5205L67.3887 18.4531C67.3496 20.1523 67.1543 21.6123 66.8027 22.833C66.4512 24.0537 65.9824 25.0791 65.3965 25.9092C64.8105 26.7393 64.1416 27.4033 63.3896 27.9014C62.6475 28.3896 61.8662 28.7559 61.0459 29H60.2549L60.2109 25.748L60.6504 25.7041C61.1484 25.1865 61.5586 24.6836 61.8809 24.1953C62.2031 23.6973 62.4521 23.1748 62.6279 22.6279C62.8037 22.0811 62.9307 21.4707 63.0088 20.7969C63.0967 20.123 63.1504 19.3418 63.1699 18.4531L63.3018 13.1504ZM64.4443 13.1504H74.9473V29H70.7432V16.5342H64.4443V13.1504ZM59.2881 25.7041H77.2178V33.7607H72.999V29H63.6094V33.7607H59.2881V25.7041Z" fill="black" fill-opacity="0.54"/>
<path d="M82.6459 21.8022H98.224L94.887 25.1379L98.1411 28.392L107.037 19.5L98.1435 10.6067L94.8882 13.862L98.2252 17.199H82.6447L82.6459 21.8022Z" fill="black" fill-opacity="0.54"/>
<path d="M90.7738 29.3195V37.7812H116.353V1.21875H90.7713V9.67931L95.3746 9.67931V5.82197H111.751V33.178H95.3758V29.3195H90.7738Z" fill="black" fill-opacity="0.54"/>
</svg>
