<svg width="306" height="110" viewBox="0 0 306 110" fill="none" xmlns="http://www.w3.org/2000/svg">
<path d="M305.77 52.458C305.541 60.8195 302.059 68.7618 296.064 74.5951C290.069 80.4284 282.035 83.6922 273.67 83.6922C265.305 83.6922 257.271 80.4284 251.276 74.5951C245.281 68.7618 241.799 60.8195 241.57 52.458C241.57 34.866 255.97 21 273.682 21C291.394 21 305.77 34.866 305.77 52.458Z" fill="#6D50BF"/>
<path d="M16.63 55.3H23.35V84.74H17.39L6.85 68.45C6.81667 68.39 6.78667 68.3667 6.76 68.38C6.73333 68.3933 6.72 68.43 6.72 68.49V84.74H0V55.3H6.09L16.51 70.71C16.5367 70.77 16.5633 70.7933 16.59 70.78C16.6167 70.7667 16.63 70.73 16.63 70.67V55.3ZM52 62.1H35.11C34.89 62.1 34.78 62.2133 34.78 62.44V68.03C34.78 68.2767 34.89 68.4 35.11 68.4H48.76V75.08H35.11C34.89 75.08 34.78 75.2067 34.78 75.46V77.64C34.78 77.8667 34.89 77.98 35.11 77.98H52V84.7H28.06V55.3H52V62.1ZM83.2 55.3H90.34L79.72 84.74H73.63L72.95 81.84C72.9233 81.7867 72.8767 81.76 72.81 81.76C72.7367 81.76 72.6867 81.7867 72.66 81.84L71.78 84.74H65.81L55.15 55.3H62.33L68.5 72.44C68.5267 72.4933 68.5767 72.52 68.65 72.52C68.7167 72.52 68.7667 72.4933 68.8 72.44L72.58 60.47C72.6067 60.3833 72.66 60.34 72.74 60.34C72.8267 60.34 72.8833 60.3833 72.91 60.47L76.69 72.44C76.75 72.4933 76.8067 72.52 76.86 72.52C76.9133 72.52 76.9567 72.4933 76.99 72.44L83.2 55.3ZM138.77 62.23H122.05C121.77 62.23 121.63 62.3833 121.63 62.69V69.41C121.63 69.7167 121.77 69.87 122.05 69.87H135.32V76.55H122.05C121.77 76.55 121.63 76.69 121.63 76.97V84.74H114.95V55.47H138.77V62.23ZM142.34 55.26H157.75C159.517 55.26 161.177 55.5967 162.73 56.27C164.283 56.9367 165.647 57.8533 166.82 59.02C168 60.18 168.927 61.5433 169.6 63.11C170.267 64.6767 170.6 66.3433 170.6 68.11C170.6 69.5967 170.35 71.03 169.85 72.41C169.343 73.7967 168.613 75.0667 167.66 76.22C166.233 77.98 164.443 79.2667 162.29 80.08L164.05 84.74H156.83L155.48 81.17C155.427 81.0033 155.317 80.92 155.15 80.92H149.39C149.17 80.92 149.06 81.0467 149.06 81.3V84.74H142.34V55.26ZM149.39 74.2H157.71C158.55 74.2 159.34 74.04 160.08 73.72C160.827 73.3933 161.48 72.9567 162.04 72.41C162.6 71.87 163.04 71.2267 163.36 70.48C163.68 69.74 163.84 68.95 163.84 68.11C163.84 67.27 163.687 66.48 163.38 65.74C163.073 64.9933 162.64 64.34 162.08 63.78C161.52 63.22 160.87 62.78 160.13 62.46C159.383 62.14 158.59 61.98 157.75 61.98H149.39C149.17 61.98 149.06 62.1067 149.06 62.36V73.86C149.06 74.0867 149.17 74.2 149.39 74.2ZM174.85 55.3H181.57V84.74H174.85V55.3ZM211.34 62.1H194.46C194.233 62.1 194.12 62.2133 194.12 62.44V68.03C194.12 68.2767 194.233 68.4 194.46 68.4H208.11V75.08H194.46C194.233 75.08 194.12 75.2067 194.12 75.46V77.64C194.12 77.8667 194.233 77.98 194.46 77.98H211.34V84.7H187.4V55.3H211.34V62.1ZM232.43 55.3H239.15V84.74H233.18L222.64 68.45C222.613 68.39 222.587 68.3667 222.56 68.38C222.533 68.3933 222.52 68.43 222.52 68.49V84.74H215.8V55.3H221.89L232.3 70.71C232.327 70.77 232.357 70.7933 232.39 70.78C232.417 70.7667 232.43 70.73 232.43 70.67V55.3ZM267.08 58.49C270.073 61.01 271.57 64.86 271.57 70.04C271.57 75.36 270.06 79.28 267.04 81.8C264.627 83.76 261.223 84.74 256.83 84.74H244.19V55.26H256.83C261.117 55.26 264.533 56.3367 267.08 58.49ZM251.24 78.02H256.83C258.343 78.02 259.61 77.8867 260.63 77.62C261.65 77.3533 262.477 76.9067 263.11 76.28C263.737 75.6467 264.183 74.82 264.45 73.8C264.717 72.78 264.85 71.5267 264.85 70.04C264.85 66.9867 264.137 64.8467 262.71 63.62C261.423 62.5533 259.463 62.02 256.83 62.02H251.24C251.02 62.02 250.91 62.1333 250.91 62.36V77.69C250.91 77.91 251.02 78.02 251.24 78.02Z" fill="#414141"/>
</svg>
