<svg width="76" height="76" viewBox="0 0 76 76" fill="none" xmlns="http://www.w3.org/2000/svg">
<g clip-path="url(#clip0_59_52)">
<path d="M70.5714 13.5714H51.5714L46.1429 8.14282H29.8571L24.4286 13.5714H5.42857C2.44286 13.5714 0 16.0143 0 19V62.4285C0 65.4278 2.42929 67.8571 5.42857 67.8571H70.5714C73.5707 67.8571 76 65.4278 76 62.4285V19C76 16.0007 73.5707 13.5714 70.5714 13.5714ZM38 59.7143C27.5093 59.7143 19 51.205 19 40.7143C19 30.2235 27.5093 21.7143 38 21.7143C48.4907 21.7143 57 30.2235 57 40.7143C57 51.205 48.4907 59.7143 38 59.7143ZM70.5714 24.4285H65.1429V19H70.5714V24.4285Z" fill="#A5A3A3" fill-opacity="0.8"/>
<path d="M37.9962 54.2857C45.4915 54.2857 51.5677 48.2095 51.5677 40.7143C51.5677 33.219 45.4915 27.1428 37.9962 27.1428C30.5009 27.1428 24.4248 33.219 24.4248 40.7143C24.4248 48.2095 30.5009 54.2857 37.9962 54.2857Z" fill="#A5A3A3" fill-opacity="0.8"/>
</g>
<defs>
<clipPath id="clip0_59_52">
<rect width="76" height="76" fill="white"/>
</clipPath>
</defs>
</svg>
