<svg width="160" height="210" viewBox="0 0 160 210" fill="none" xmlns="http://www.w3.org/2000/svg">
<g clip-path="url(#clip0_59_57)">
<path d="M112.571 68.5714H93.5714L88.1429 63.1428H71.8571L66.4286 68.5714H47.4286C44.4429 68.5714 42 71.0143 42 74V117.429C42 120.428 44.4293 122.857 47.4286 122.857H112.571C115.571 122.857 118 120.428 118 117.429V74C118 71.0007 115.571 68.5714 112.571 68.5714ZM80 114.714C69.5093 114.714 61 106.205 61 95.7143C61 85.2235 69.5093 76.7143 80 76.7143C90.4907 76.7143 99 85.2235 99 95.7143C99 106.205 90.4907 114.714 80 114.714ZM112.571 79.4285H107.143V74H112.571V79.4285Z" fill="#A5A3A3" fill-opacity="0.8"/>
<path d="M79.9962 109.286C87.4915 109.286 93.5677 103.21 93.5677 95.7143C93.5677 88.219 87.4915 82.1428 79.9962 82.1428C72.5009 82.1428 66.4248 88.219 66.4248 95.7143C66.4248 103.21 72.5009 109.286 79.9962 109.286Z" fill="#A5A3A3" fill-opacity="0.8"/>
</g>
<defs>
<clipPath id="clip0_59_57">
<rect width="76" height="76" fill="white" transform="translate(42 55)"/>
</clipPath>
</defs>
</svg>
